HIERARCHY
ROOT Hips
{
 OFFSET 0.000000 0.000000 0.000000
 CHANNELS 6 Xposition Yposition Zposition Yrotation Xrotation Zrotation
 JOINT Chest
 {
  OFFSET 0.000000 13.173100 -0.061900
  CHANNELS 3 Yrotation Xrotation Zrotation
  JOINT Chest2
  {
   OFFSET 0.000000 8.040800 0.126200
   CHANNELS 3 Yrotation Xrotation Zrotation
   JOINT Chest3
   {
    OFFSET 0.000000 7.994400 0.000000
    CHANNELS 3 Yrotation Xrotation Zrotation
    JOINT Chest4
    {
     OFFSET 0.000000 7.986200 0.000000
     CHANNELS 3 Yrotation Xrotation Zrotation
     JOINT Neck
     {
      OFFSET 0.000000 12.259400 0.000000
      CHANNELS 3 Yrotation Xrotation Zrotation
      JOINT Head
      {
       OFFSET 0.000000 7.518700 0.267100
       CHANNELS 3 Yrotation Xrotation Zrotation
       End Site
       {
        OFFSET 0.000000 13.617700 0.141000
       }
      }
     }
     JOINT RightCollar
     {
      OFFSET -2.983800 8.314300 0.000000
      CHANNELS 3 Yrotation Xrotation Zrotation
      JOINT RightShoulder
      {
       OFFSET -16.133400 0.000000 0.000000
       CHANNELS 3 Yrotation Xrotation Zrotation
       JOINT RightElbow
       {
        OFFSET 0.000000 -29.822100 0.000000
        CHANNELS 3 Yrotation Xrotation Zrotation
        JOINT RightWrist
        {
         OFFSET 0.000000 -24.437700 0.010900
         CHANNELS 3 Yrotation Xrotation Zrotation
         End Site
         {
          OFFSET 0.000000 -18.312300 0.000000
         }
        }
       }
      }
     }
     JOINT LeftCollar
     {
      OFFSET 2.983800 8.314300 0.000000
      CHANNELS 3 Yrotation Xrotation Zrotation
      JOINT LeftShoulder
      {
       OFFSET 16.133400 0.000000 0.000000
       CHANNELS 3 Yrotation Xrotation Zrotation
       JOINT LeftElbow
       {
        OFFSET 0.000000 -29.822100 0.000000
        CHANNELS 3 Yrotation Xrotation Zrotation
        JOINT LeftWrist
        {
         OFFSET 0.000000 -24.437700 0.010900
         CHANNELS 3 Yrotation Xrotation Zrotation
         End Site
         {
          OFFSET 0.000000 -18.312300 0.000000
         }
        }
       }
      }
     }
    }
   }
  }
 }
 JOINT RightHip
 {
  OFFSET -11.206700 0.306200 0.030900
  CHANNELS 3 Yrotation Xrotation Zrotation
  JOINT RightKnee
  {
   OFFSET 0.000000 -57.334900 0.009400
   CHANNELS 3 Yrotation Xrotation Zrotation
   JOINT RightAnkle
   {
    OFFSET 0.000000 -43.376200 0.036600
    CHANNELS 3 Yrotation Xrotation Zrotation
    JOINT RightToe
    {
     OFFSET 0.000000 -10.035500 18.363100
     CHANNELS 3 Yrotation Xrotation Zrotation
     End Site
     {
      OFFSET 0.000000 -1.618500 7.239000
     }
    }
   }
  }
 }
 JOINT LeftHip
 {
  OFFSET 11.206700 0.306200 0.030900
  CHANNELS 3 Yrotation Xrotation Zrotation
  JOINT LeftKnee
  {
   OFFSET 0.000000 -57.334900 0.009400
   CHANNELS 3 Yrotation Xrotation Zrotation
   JOINT LeftAnkle
   {
    OFFSET 0.000000 -43.376200 0.036600
    CHANNELS 3 Yrotation Xrotation Zrotation
    JOINT LeftToe
    {
     OFFSET 0.000000 -10.035500 18.363100
     CHANNELS 3 Yrotation Xrotation Zrotation
     End Site
     {
      OFFSET 0.000000 -1.618500 7.239000
     }
    }
   }
  }
 }
}
MOTION
Frames: 15
Frame Time: 0.008333
-74.772504 71.717357 41.957894 -168.349183 -36.224579 -11.646423 -6.105969 8.332495 6.991030 -3.430431 4.498723 1.950902 -4.235855 5.591911 2.428706 -3.417491 4.476395 1.964102 6.341062 31.103442 -1.591076 7.500570 9.646324 -3.213660 6.818110 -4.510109 -1.276248 6.730981 -21.028642 -3.384537 45.921833 -15.492796 -12.788559 7.076700 10.485830 -17.764911 -9.102869 -1.921724 -4.659549 0.256110 -0.432479 4.414340 -74.497911 -39.987043 53.670228 8.206131 -5.141134 10.454048 -24.367179 -22.320447 2.323381 34.838052 86.681606 32.587196 -0.462852 -24.582411 -3.371993 -0.549999 1.670279 -0.287214 -14.871540 -39.741824 7.353895 168.843152 73.668443 167.972886 1.359583 -21.521737 -2.073699 -1.086954 -2.946941 -0.571730
-74.794869 71.752224 41.970738 -168.333477 -36.275511 -11.550246 -6.105397 8.317936 6.901881 -3.445083 4.527382 1.942383 -4.220399 5.584660 2.442614 -3.435569 4.492888 1.951971 6.352845 31.062261 -1.564020 7.481244 9.599342 -3.196125 6.833923 -4.495510 -1.253986 6.747420 -21.033081 -3.390411 45.780195 -15.499685 -12.821323 7.087045 10.462771 -17.803168 -9.095404 -1.889471 -4.651421 0.250556 -0.450906 4.424293 -74.343006 -39.928916 53.432290 8.177801 -5.070026 10.267404 -24.364465 -22.313774 2.178807 34.705105 86.671894 32.438524 -0.446879 -24.563030 -3.403743 -0.531015 1.658099 -0.271674 -14.475108 -39.666807 7.008515 168.507937 73.778734 167.858908 1.306085 -21.591312 -2.079037 -1.052994 -2.847518 -0.556601
-74.834564 71.798484 41.974957 -168.259579 -36.361184 -11.439680 -6.156356 8.358208 6.752343 -3.437893 4.519128 1.950282 -4.218695 5.602279 2.446880 -3.454678 4.504599 1.938166 6.366136 31.022839 -1.536688 7.460077 9.548819 -3.180701 6.867321 -4.461212 -1.200049 6.750110 -21.029127 -3.396355 45.650194 -15.498766 -12.897167 7.077830 10.444168 -17.832449 -9.092994 -1.852924 -4.637025 0.244913 -0.474840 4.431842 -74.193109 -39.856674 53.193757 8.135820 -4.981543 10.069394 -24.381147 -22.274013 1.962112 34.748145 86.660906 32.458102 -0.466016 -24.568990 -3.444496 -0.501657 1.645287 -0.242478 -13.994564 -39.563712 6.516468 168.005237 73.888564 167.640401 1.246705 -21.646041 -2.091063 -1.007140 -2.756194 -0.532538
-74.871166 71.851013 41.979737 -168.214542 -36.436273 -11.350798 -6.190525 8.413960 6.632628 -3.402731 4.477707 1.984539 -4.234069 5.632516 2.438073 -3.415205 4.502544 1.970921 6.288037 31.008202 -1.569772 7.448749 9.484284 -3.166425 6.832150 -4.416744 -1.202556 6.733771 -21.029336 -3.429140 45.526412 -15.536854 -12.941810 7.068841 10.432402 -17.841786 -9.124854 -1.767938 -4.648663 0.205817 -0.542999 4.422916 -74.053273 -39.766596 52.965567 8.085873 -4.872036 9.863125 -24.400107 -22.235930 1.777619 34.592877 86.644860 32.304172 -0.457619 -24.540350 -3.509681 -0.455890 1.613322 -0.211827 -13.496611 -39.489485 6.020990 167.337452 73.979112 167.300057 1.256095 -21.619222 -2.111123 -1.020330 -2.731833 -0.545402
-74.905821 71.908603 41.986528 -168.187989 -36.492501 -11.286664 -6.193115 8.419168 6.574880 -3.415648 4.502664 1.971085 -4.235145 5.639150 2.438673 -3.414168 4.506830 1.971714 6.271996 30.999752 -1.576207 7.448224 9.446029 -3.158850 6.843136 -4.396801 -1.170663 6.699109 -21.012173 -3.447735 45.431866 -15.583057 -13.004003 7.064823 10.425467 -17.835173 -9.115643 -1.723808 -4.642026 0.176882 -0.574115 4.441405 -73.921482 -39.656837 52.752131 8.032993 -4.747260 9.645951 -24.467176 -22.194070 1.658463 34.600321 86.601821 32.262988 -0.460117 -24.512789 -3.563350 -0.422769 1.591400 -0.190281 -13.035011 -39.458755 5.535920 166.547699 74.033612 166.852344 1.355931 -21.513351 -2.154060 -1.098758 -2.772624 -0.589697
-74.932598 71.979163 41.986318 -168.199237 -36.581468 -11.266101 -6.141924 8.435556 6.607725 -3.436614 4.536458 1.943818 -4.221562 5.654906 2.447809 -3.437146 4.509856 1.952021 6.285112 30.959181 -1.555583 7.424201 9.442140 -3.160843 6.853111 -4.382158 -1.134878 6.644085 -20.985440 -3.461144 45.378613 -15.625647 -13.078061 7.065569 10.421399 -17.823343 -9.101172 -1.676699 -4.636760 0.142238 -0.605493 4.461936 -73.795656 -39.533915 52.547245 7.977930 -4.612999 9.422946 -24.433913 -22.092030 1.583392 34.273562 86.538914 31.934350 -0.472636 -24.462379 -3.579537 -0.404674 1.567150 -0.178492 -12.606367 -39.417290 5.089472 165.699395 74.048620 166.352187 1.567656 -21.316430 -2.200112 -1.266297 -2.884887 -0.686057
-74.970505 72.048650 41.995835 -168.221960 -36.616959 -11.195939 -6.116465 8.446643 6.562369 -3.423499 4.529999 1.958631 -4.209528 5.674683 2.459911 -3.419180 4.525518 1.967300 6.234458 30.906785 -1.581273 7.433463 9.338823 -3.142558 6.819352 -4.395331 -1.131869 6.583300 -20.968109 -3.481157 45.353813 -15.652954 -13.139053 7.067401 10.419415 -17.820137 -9.144427 -1.684448 -4.669646 0.124963 -0.617881 4.483420 -73.669302 -39.396325 52.337077 7.924649 -4.476403 9.205659 -24.437479 -22.073229 1.446578 34.915617 86.471180 32.545171 -0.345336 -24.423472 -3.591135 -0.504036 1.549550 -0.231728 -12.232388 -39.448552 4.633324 164.932321 74.046467 165.879807 1.775306 -21.153942 -2.238788 -1.416751 -2.955132 -0.782245
-75.027421 72.111677 42.022914 -168.259237 -36.561520 -11.015212 -6.110342 8.357688 6.424572 -3.391300 4.528991 1.995003 -4.221948 5.697610 2.447903 -3.411418 4.541174 1.977523 6.208390 30.852975 -1.592581 7.432436 9.284394 -3.129680 6.799965 -4.427425 -1.117682 6.503003 -20.953590 -3.496812 45.367615 -15.665626 -13.195101 7.070137 10.416034 -17.828924 -9.173154 -1.701624 -4.692016 0.125036 -0.623983 4.511333 -73.554431 -39.270847 52.122803 7.878550 -4.348722 9.004415 -24.423432 -22.208316 1.207861 36.327394 86.385444 33.898460 -0.115632 -24.372874 -3.562399 -0.716571 1.529832 -0.347248 -11.940689 -39.604402 4.171093 164.399296 74.035963 165.528681 1.878025 -21.050073 -2.253916 -1.469146 -2.946384 -0.843381
-75.081481 72.200810 42.031381 -168.223632 -36.593194 -10.882010 -6.122206 8.359679 6.306298 -3.410799 4.540633 1.977633 -4.200649 5.722142 2.465969 -3.415230 4.554125 1.979273 6.235898 30.811144 -1.556091 7.371344 9.265127 -3.149645 6.777320 -4.469126 -1.122521 6.396679 -20.949319 -3.471311 45.416377 -15.665971 -13.249004 7.073978 10.408257 -17.843207 -9.177455 -1.697040 -4.693752 0.122122 -0.644781 4.529377 -73.444802 -39.163255 51.905912 7.840378 -4.241360 8.827593 -24.467337 -22.192412 1.030189 36.437810 86.311149 33.957300 -0.179366 -24.396041 -3.617195 -0.657476 1.518610 -0.313211 -11.829166 -39.695626 3.798394 164.134879 74.001268 165.319408 1.945930 -20.905625 -2.218691 -1.497106 -2.953020 -0.908250
-75.133065 72.300517 42.045075 -168.161497 -36.587964 -10.723047 -6.119719 8.322017 6.183834 -3.456704 4.556084 1.948361 -4.222697 5.726210 2.453209 -3.417708 4.560908 1.979972 6.218724 30.790148 -1.564671 7.404632 9.218603 -3.107059 6.772423 -4.494350 -1.107830 6.264803 -20.947740 -3.436120 45.491339 -15.657311 -13.301349 7.105317 10.396040 -17.828139 -9.161688 -1.670121 -4.686184 0.118257 -0.660681 4.526984 -73.320262 -39.055632 51.683604 7.811084 -4.160130 8.680914 -24.454345 -22.218082 0.792285 36.505365 86.215980 34.049918 -0.249921 -24.413525 -3.675067 -0.584935 1.529768 -0.273478 -11.853415 -39.879216 3.493433 164.072478 73.911399 165.192157 1.908758 -20.793604 -2.127284 -1.457114 -2.907160 -0.955370
-75.165208 72.424481 42.053413 -168.130274 -36.604163 -10.567994 -6.101523 8.312858 6.068788 -3.436140 4.575754 1.971639 -4.294567 5.715494 2.405649 -3.420711 4.567718 1.980373 6.241397 30.782638 -1.533133 7.396105 9.173860 -3.073002 6.779413 -4.517726 -1.060389 6.116282 -20.943024 -3.430917 45.608619 -15.645712 -13.339078 7.050169 10.390210 -17.897675 -9.126331 -1.590047 -4.661690 0.099913 -0.720473 4.490646 -73.189032 -38.956421 51.461481 7.791129 -4.109247 8.567366 -24.456424 -22.210532 0.598777 36.366404 86.119620 33.900119 -0.308873 -24.395795 -3.729640 -0.525607 1.509646 -0.242747 -11.926319 -40.105876 3.280449 164.052999 73.741714 165.042376 1.788429 -20.683431 -1.967107 -1.391842 -2.846256 -1.006797
-75.191521 72.573084 42.060471 -168.107629 -36.621737 -10.354939 -6.099039 8.304515 5.889401 -3.438193 4.584486 1.972461 -4.251904 5.753885 2.446708 -3.475013 4.547928 1.947306 6.279697 30.772794 -1.458100 7.322249 9.128997 -3.081558 6.766220 -4.555199 -1.035448 5.962300 -20.932604 -3.420475 45.727490 -15.639991 -13.384939 6.979137 10.386091 -17.975803 -9.138155 -1.583101 -4.667280 0.127737 -0.722523 4.462108 -73.062301 -38.866987 51.243740 7.780962 -4.085398 8.490749 -24.431987 -22.212435 0.360127 35.998070 86.008444 33.525096 -0.390762 -24.370462 -3.786902 -0.444428 1.487844 -0.203086 -11.910982 -40.400894 2.998645 163.980597 73.489424 164.847286 1.551935 -20.660724 -1.754495 -1.267387 -2.697387 -1.034674
-75.206223 72.755413 42.060944 -168.131712 -36.670981 -10.086195 -6.074042 8.319738 5.666412 -3.461753 4.585087 1.951759 -4.242994 5.761139 2.456430 -3.449194 4.576582 1.966948 6.251833 30.738780 -1.443090 7.290557 9.115166 -3.088085 6.779213 -4.561262 -0.992047 5.801239 -20.932232 -3.445807 45.796820 -15.645866 -13.439966 6.948841 10.370138 -18.034884 -9.147829 -1.572695 -4.674681 0.160492 -0.716010 4.427577 -72.941517 -38.791146 51.035294 7.779199 -4.078306 8.457371 -24.350593 -22.193903 0.101477 35.218515 85.901053 32.722188 -0.462882 -24.311143 -3.819959 -0.375723 1.439380 -0.171362 -11.741930 -40.718465 2.640634 163.851537 73.168664 164.639479 1.242026 -20.748538 -1.508039 -1.111515 -2.448392 -1.038271
-75.199819 72.974666 42.055781 -168.228352 -36.742871 -9.789833 -6.010485 8.350883 5.432488 -3.404403 4.596027 2.017017 -4.297481 5.750986 2.405878 -3.431385 4.592294 1.983026 6.214033 30.715025 -1.451568 7.286568 9.068143 -3.030841 6.782299 -4.548737 -0.991409 5.673971 -20.918539 -3.436564 45.820144 -15.677957 -13.498283 6.933539 10.358651 -18.097490 -9.139754 -1.538697 -4.682322 0.187458 -0.701170 4.390550 -72.826456 -38.727112 50.846054 7.778731 -4.081278 8.463922 -24.217849 -22.140886 -0.139957 34.205691 85.771762 31.687377 -0.503251 -24.220212 -3.850906 -0.337180 1.374458 -0.158554 -11.455325 -41.040645 2.274550 163.711662 72.805279 164.462203 0.919090 -20.970128 -1.281311 -0.960081 -2.087406 -1.003128
-75.195352 73.230284 42.045690 -168.281773 -36.829250 -9.445735 -5.958061 8.387963 5.164841 -3.411280 4.608597 2.024239 -4.303454 5.748760 2.395600 -3.436879 4.597055 1.981527 6.177232 30.693804 -1.463099 7.276860 9.006595 -2.982717 6.760957 -4.557584 -1.019862 5.615660 -20.863679 -3.419130 45.800261 -15.729314 -13.555037 6.942635 10.351694 -18.143319 -9.123570 -1.492578 -4.696292 0.211037 -0.678115 4.353684 -72.730275 -38.667867 50.693744 7.776687 -4.086876 8.492984 -24.098652 -22.078068 -0.474280 33.239965 85.611225 30.713132 -0.573697 -24.111527 -3.905884 -0.263595 1.296553 -0.128565 -11.101899 -41.346919 1.799739 163.738588 72.447722 164.478383 0.591211 -21.399806 -1.168626 -0.732436 -1.615668 -0.911789
